<svg xmlns="http://www.w3.org/2000/svg" viewBox="0 0 400 300" xmlns:xlink="http://www.w3.org/1999/xlink">

  <g
     transform="rotate(90,199.94969,199.94381)"
     id="g1">
    <g
       transform="matrix(0.76584,0,0,0.76584,512.082,-162.704)"
       id="g3">
      <circle
         style="opacity:1;fill:#ffffff;fill-opacity:1;fill-rule:nonzero;stroke:#000000;stroke-width:17.2171;stroke-linecap:butt;stroke-linejoin:round;stroke-miterlimit:4;stroke-dasharray:none;stroke-dashoffset:0;stroke-opacity:1"
         cx="-472.78299"
         cy="341.25601"
         r="107.567"
         id="circle1" />
      <circle
         style="opacity:1;fill:#000037;fill-opacity:1;fill-rule:nonzero;stroke:none;stroke-width:0;stroke-linecap:butt;stroke-linejoin:round;stroke-miterlimit:4;stroke-dasharray:none;stroke-dashoffset:0;stroke-opacity:0"
         cx="-472.78299"
         cy="341.62701"
         r="87.813004"
         id="circle2" />
      <path
         d="m -93.33,-74.125 a 163.919,163.919 0 0 1 -224.594,-13.082 163.919,163.919 0 0 1 0,-224.975 163.919,163.919 0 0 1 224.594,-13.081"
         style="opacity:1;fill:none;fill-opacity:1;fill-rule:nonzero;stroke:#ffffff;stroke-width:125.71;stroke-linecap:round;stroke-linejoin:round;stroke-miterlimit:4;stroke-dasharray:none;stroke-dashoffset:0;stroke-opacity:1"
         transform="matrix(0.10477,0,0,0.08588,-506.329,359.108)"
         id="unique_prefix__a" />
      <use
         x="0"
         y="0"
         xlink:href="#unique_prefix__a"
         id="unique_prefix__b"
         transform="rotate(-60,-472.858,342.066)"
         width="100%"
         height="100%" />
      <use
         x="0"
         y="0"
         xlink:href="#unique_prefix__b"
         id="unique_prefix__c"
         transform="rotate(-60,-473.886,342.721)"
         width="100%"
         height="100%" />
      <use
         x="0"
         y="0"
         xlink:href="#unique_prefix__c"
         id="unique_prefix__d"
         transform="rotate(-60,-473.886,342.721)"
         width="100%"
         height="100%" />
      <use
         x="0"
         y="0"
         xlink:href="#unique_prefix__d"
         id="unique_prefix__e"
         transform="rotate(-60,-473.886,342.721)"
         width="100%"
         height="100%" />
      <use
         xlink:href="#unique_prefix__e"
         transform="rotate(-60,-473.886,342.721)"
         width="100%"
         height="100%"
         id="use2" />
      <circle
         style="opacity:1;fill:none;fill-opacity:1;fill-rule:nonzero;stroke:#ffffff;stroke-width:12.2858;stroke-linecap:butt;stroke-linejoin:round;stroke-miterlimit:4;stroke-dasharray:none;stroke-dashoffset:0;stroke-opacity:1"
         cx="-472.931"
         cy="341.51599"
         r="18.188"
         id="circle3" />
    </g>
    <g
       transform="matrix(0.76584,0,0,0.76584,512.082,39.796)"
       id="g9">
      <circle
         r="107.567"
         cy="341.25601"
         cx="-472.78299"
         style="opacity:1;fill:#ffffff;fill-opacity:1;fill-rule:nonzero;stroke:#000000;stroke-width:17.2171;stroke-linecap:butt;stroke-linejoin:round;stroke-miterlimit:4;stroke-dasharray:none;stroke-dashoffset:0;stroke-opacity:1"
         id="circle4" />
      <circle
         r="87.813004"
         cy="341.62701"
         cx="-472.78299"
         style="opacity:1;fill:#000037;fill-opacity:1;fill-rule:nonzero;stroke:none;stroke-width:0;stroke-linecap:butt;stroke-linejoin:round;stroke-miterlimit:4;stroke-dasharray:none;stroke-dashoffset:0;stroke-opacity:0"
         id="circle5" />
      <path
         d="m -93.33,-74.125 a 163.919,163.919 0 0 1 -224.594,-13.082 163.919,163.919 0 0 1 0,-224.975 163.919,163.919 0 0 1 224.594,-13.081"
         style="opacity:1;fill:none;fill-opacity:1;fill-rule:nonzero;stroke:#ffffff;stroke-width:125.71;stroke-linecap:round;stroke-linejoin:round;stroke-miterlimit:4;stroke-dasharray:none;stroke-dashoffset:0;stroke-opacity:1"
         transform="matrix(0.10477,0,0,0.08588,-506.329,359.108)"
         id="path5" />
      <use
         height="100%"
         width="100%"
         transform="rotate(-60,-472.858,342.066)"
         xlink:href="#unique_prefix__a"
         id="use5" />
      <use
         height="100%"
         width="100%"
         transform="rotate(-60,-473.886,342.721)"
         xlink:href="#unique_prefix__b"
         id="use6" />
      <use
         height="100%"
         width="100%"
         transform="rotate(-60,-473.886,342.721)"
         xlink:href="#unique_prefix__c"
         id="use7" />
      <use
         height="100%"
         width="100%"
         transform="rotate(-60,-473.886,342.721)"
         xlink:href="#unique_prefix__d"
         id="use8" />
      <use
         height="100%"
         width="100%"
         transform="rotate(-60,-473.886,342.721)"
         xlink:href="#unique_prefix__e"
         id="use9" />
      <circle
         r="18.188"
         cy="341.51599"
         cx="-472.931"
         style="opacity:1;fill:none;fill-opacity:1;fill-rule:nonzero;stroke:#ffffff;stroke-width:12.2858;stroke-linecap:butt;stroke-linejoin:round;stroke-miterlimit:4;stroke-dasharray:none;stroke-dashoffset:0;stroke-opacity:1"
         id="circle9" />
    </g>
  </g>
</svg>
