<svg xmlns="http://www.w3.org/2000/svg" 
   viewBox="0 0 400 300" >
  <g
     transform="rotate(90,199.78739,199.95539)">
    <path
       d="m 18.303,756.6 c -9.586,1.253 -21.044,-11.13 -7.344,-14.66 43.69,-8.445 191.763,-31.914 208.715,-38.97 14.882,-4.476 48.78,19.646 69.772,30.824 13.035,7.626 7.097,16.274 -2.938,20.175 -8.125,2.447 -55.98,6.847 -81.613,3.759 -4.89,-0.5 -3.035,-12.309 -13.956,-14.002 -50.104,-9.31 -121.715,6.609 -172.636,12.874 z"
       style="fill:#19328c;fill-opacity:1;fill-rule:evenodd;stroke:none;stroke-width:1px;stroke-linecap:butt;stroke-linejoin:miter;stroke-opacity:1"
       transform="matrix(0.85009,0,0,0.93539,19.53,-595.253)"
       id="path1" />
    <path
       d="m 202.3,755.155 c -1.275,3.789 -1.924,9.06 -4.622,10.318 -5.18,1.776 -10.933,0.562 -13.808,5 -4.19,6.732 -29.81,25.813 -47.58,39.893 -5.04,3.992 -13.56,1.057 -14.11,-6.386 l -0.068,27.464 12.62,-0.624 c 10.987,-8.589 41.279,-37.359 54.83,-37.696 10.772,-0.855 23.242,-4.166 26.21,-11.339 2.5,-6.407 -4.914,-10.93 -4.229,-14.504 1.07,-4.177 9.936,-8.481 12.91,-8.514 5.076,-0.056 -20.883,-7.645 -22.152,-3.612 z"
       style="fill:#19328c;fill-opacity:1;fill-rule:evenodd;stroke:none;stroke-width:1px;stroke-linecap:butt;stroke-linejoin:miter;stroke-opacity:1"
       transform="matrix(0.85009,0,0,0.93539,19.53,-595.253)"
       id="path2" />
    <path
       d="m 44.513,845.652 c 52.142,-12.4 175.205,-50.85 193.237,-43.657 22.34,10.87 63.544,36.445 64.115,47.242 0.226,10.504 0.098,11.397 -8.759,19.874 -13.17,12.93 -55.353,77.186 -61.499,101.906 -1.422,6.271 -0.443,18.401 -5.167,23.428 -6.613,7.365 -88.046,-1.13 -141.056,-3.23 -17.92,-0.6 -26.244,-18.982 0.533,-19.54 34.106,-0.614 92.368,-2.022 99.276,-10.493 6.239,-7.953 49.264,-97.451 49.364,-107.09 0.106,-6.046 -10.735,-20.21 -17.193,-24.295 -7.881,-5.57 -118.387,28.03 -167.578,35.02 z"
       style="fill:#19328c;fill-opacity:1;fill-rule:evenodd;stroke:none;stroke-width:1px;stroke-linecap:butt;stroke-linejoin:miter;stroke-opacity:1"
       transform="matrix(0.85009,0,0,0.93539,19.53,-595.253)"
       id="path3" />
    <path
       d="m 22.79,858.993 c 13.914,26.906 43.91,76.585 55.89,124.515 l 32.084,-2.126 C 102.828,945.314 83.447,884.027 64.641,853.962 30.771,800.26 -5.526,807.368 22.79,858.993 Z m 98.374,-75.07 c -3.212,-15.545 -15.495,-12.916 -13.587,3.497 l 18.464,193.393 14.143,-0.7 z m 68.493,1.193 h -13.324 l -25.127,191.878 h 12.92 z"
       style="fill:#19328c;fill-opacity:1;fill-rule:evenodd;stroke:none;stroke-width:1px;stroke-linecap:butt;stroke-linejoin:miter;stroke-opacity:1"
       transform="matrix(0.85009,0,0,0.93539,19.53,-595.253)"
       id="path4" />
  </g>
</svg>
