<svg xmlns="http://www.w3.org/2000/svg" 
   viewBox="0 0 400 300" >
  <g
     transform="rotate(90,195.48038,195.08645)">
    <path
       d="m 29.908,770.382 c -6.194,8.022 21.428,29.442 41.676,35.891 6.543,2.44 26.83,-18.714 18.905,-23.557 C 68.698,771.43 34.31,764.431 29.908,770.382 Z"
       style="fill:#142896;fill-opacity:1;fill-rule:evenodd;stroke:none;stroke-width:10;stroke-linecap:round;stroke-linejoin:round;stroke-miterlimit:4;stroke-dasharray:none;stroke-opacity:1"
       transform="matrix(0.93642,0,0,0.93642,5.154,-561.002)"
       id="path1" />
    <path
       d="M 67.104,774.191 C 42.135,868.077 49.447,858.111 6.43,915.86 c -6.935,17.584 15.869,32.7 27.034,25.98 15.451,-10.347 32.9,-22.278 43.788,-35.681 19.77,-24.336 110.55,-91.983 171.956,-110.953 12.367,-3.82 23.894,-3.271 35.181,-5.71 8.484,-2.412 -0.039,-15.02 -4.698,-19.791 -15.705,-16.55 -43.366,-26.34 -52.425,-19.817 -3.975,1.966 1.93,29.481 -2.892,32.065 C 177.776,804.76 91.39,863.627 52.126,893.77 c -1.47,0.685 1.343,-5.302 2.312,-7.244 8.626,-17.269 18.011,-65.73 22.725,-115.039 0.446,-11.08 -8.412,-7.225 -10.059,2.704 z"
       style="fill:#142896;fill-opacity:1;fill-rule:evenodd;stroke:none;stroke-width:1px;stroke-linecap:butt;stroke-linejoin:miter;stroke-opacity:1"
       transform="matrix(0.93642,0,0,0.93642,5.154,-561.002)"
       id="path2" />
    <path
       d="m 114.097,711.598 c -10.019,-1.064 -15.49,8.808 -14.343,18.463 0.974,8.187 1.252,18.673 9.833,27.56 5.646,6.998 1.451,60.098 1.343,105.007 -0.008,3.148 -2.422,3.815 -2.368,6.849 -0.01,7.912 4.135,27.856 9.278,28.02 4.805,-0.237 11.742,-7.604 12.103,-18.159 2.706,-49.996 7.297,-115.745 11.256,-124.15 4.988,-10.59 13.59,-7.742 14.45,-17.856 1.272,-14.154 -19.131,-22.602 -41.552,-25.734 z"
       style="fill:#142896;fill-opacity:1;fill-rule:evenodd;stroke:none;stroke-width:1px;stroke-linecap:butt;stroke-linejoin:miter;stroke-opacity:1"
       transform="matrix(0.93642,0,0,0.93642,5.154,-561.002)"
       id="path3" />
    <path
       d="m 185.332,661.726 c -11.04,0 -32.463,30.34 -32.524,36.72 0.118,8.198 20.742,15.7 20.326,27.908 -0.39,69.66 -18.683,181.14 -4.683,199.36 20.54,24.538 118.853,1.867 124.945,-3.147 9.693,-7.945 13.91,-15.912 10.491,-23.955 -3.665,-8.855 -76.701,11.158 -108.858,-0.7 -13.498,-4.957 -3.985,-100.612 -3.751,-156.8 0.684,-12.785 25.766,-27.268 25.879,-32.873 0.4,-10.883 -18.37,-45.203 -31.825,-46.513 z"
       style="fill:#142896;fill-opacity:1;fill-rule:evenodd;stroke:none;stroke-width:1px;stroke-linecap:butt;stroke-linejoin:miter;stroke-opacity:1"
       transform="matrix(0.93642,0,0,0.93642,5.154,-561.002)"
       id="path4" />
  </g>
</svg>
