<svg
   xmlns="http://www.w3.org/2000/svg"
   viewBox="0 0 400 300">
  <g
     transform="translate(54.162202,-40.449772)">
    <path
       style="fill:#b93c3c;fill-opacity:1;fill-rule:evenodd;stroke:none;stroke-width:1px;stroke-linecap:butt;stroke-linejoin:miter;stroke-opacity:1"
       d="m 109.42857,105.05497 c -10.776,101.51 15.763,95.086 18.577,180.061 2.746,18.885 17.46,17.635 16.017,-0.449 -2.243,-90.368 -34.94,-58.78 -16.091,-177.693 5.176,-28.996997 -14.568,-24.263997 -18.503,-1.919 z"
       id="path1" />
    <path
       style="fill:#b93c3c;fill-opacity:1;fill-rule:evenodd;stroke:none;stroke-width:1px;stroke-linecap:butt;stroke-linejoin:miter;stroke-opacity:1"
       d="m 152.62757,196.31897 c 3.924,1.312 10.181,-7.997 3.472,-13.22 -7.479,-4.83 -12.155,-6.263 -17.42,-10.86 -2.393,-1.958 -7.725,-2.24 -9.267,-0.216 -6.199,7.568 -4.784,6.724 -14.738,11.5 l 1.762,20.53 c 8.589,-6.52 7.834,-7.597 16.424,-10.131 9.327,-1.165 10.176,-0.808 19.767,2.397 z m 37.962,25.793 c 2.165,-2.072 2.932,-3.31 0,-6.213 l -15.54,-15.391 c -1.501,-1.348 -3.706,-1.372 -4.97,-0.264 l -8.834,9.17 c -4.252,4.353 -7.314,5.464 -12.336,2.9 -9.616,-3.42 -19.367,-5.987 -24.708,-6.097 l 3.487,21.18 c 9.818,-3.959 12.358,-3.87 21.647,2.866 6.327,5.559 7.774,10.933 16.417,5.995 z m -80.356,22.403 c 0,-2.379 -0.351,-5.115 -0.675,-7.986 -4.24,-25.98 -13.662,-44.632 -12.14,-87.783 -0.03,-5.841 -3.109,-10.797 -7.59,-10.592 -9.893,0.416 -62.177,7.7 -66.89,8.305 -6.417,0.853 -6.987,9.79 -1.34,10.967 1.033,0.215 3.957,0.221 7.995,0.098 1.144,0.547 2.02,1.397 2.184,2.308 l 5.092,56.983 c -0.007,0.58 -0.545,1.014 -1.33,1.32 -20.094,-0.442 -39.7419999,-0.684 -46.624,-0.254 -1.52,0.124 -3.12,0.051 -4.486,1.57 -3.034,3.627 -1.363,24.108 1.947,29.408 1.078,1.469 1.583,2 3.8300001,2.198 33.9919999,-2.961 77.2179999,-0.668 110.8729999,1.605 7.453,0.597 9.155,-2.911 9.155,-8.146 z m -16.763,-26.98 c 1.39,5.652 -15.828,2.022 -15.877,0.088 l -4.611,-58.828 c 1.024,-5.127 13.066,-4.88 13.228,-1.422 0.896,26.639 3.181,35.744 7.26,60.162 z m -29.152,-0.129 c 0.13,1.706 -12.385,2.018 -12.586,-0.38 l -4.797,-57.32 c 1.15,-4.102 11.962,-4.353 12.492,-0.78 z"
       id="path2" />
    <path
       style="fill:#b93c3c;fill-opacity:1;fill-rule:evenodd;stroke:none;stroke-width:1px;stroke-linecap:butt;stroke-linejoin:miter;stroke-opacity:1"
       d="m 93.44357,197.41297 -0.635,-19.233 -90.5599999,-5.291 c -10.291,-0.751 -20.6100001,4.492 -20.7620001,11.24 l 6.546,18.743 z"
       id="path3" />
    <path
       style="fill:#b93c3c;fill-opacity:1;fill-rule:evenodd;stroke:none;stroke-width:1px;stroke-linecap:butt;stroke-linejoin:miter;stroke-opacity:1"
       d="m -15.17643,136.31897 -8.028,0.846 c -18.284,54.246 8.576,41.637 15.1510001,96.894 l 4.928,-0.634 c 2.98800003,-42.242 -13.1790001,-64.353 -12.0510001,-97.106 z"
       id="path4" />
    <path
       style="fill:#b93c3c;fill-opacity:1;fill-rule:evenodd;stroke:none;stroke-width:1px;stroke-linecap:butt;stroke-linejoin:miter;stroke-opacity:1"
       d="m 44.25657,131.13897 c 14.35,-4.79 11.53,-18.047 -0.885,-15.57 -43.44799987,13.898 -67.498,17.943 -70.859,19.8 -18.228,10.792 -13.453,18.402 2.434,19.078 4.85,0.112 43.495,-14.234 69.31,-23.308 z"
       id="path5" />
    <path
       style="fill:#b93c3c;fill-opacity:1;fill-rule:evenodd;stroke:none;stroke-width:1px;stroke-linecap:butt;stroke-linejoin:miter;stroke-opacity:1"
       d="m 15.25157,88.451973 c 1.304,-8.36 -9.0839999,-7.6 -11.2879999,-3.317 -26.4680001,59.847997 8.8649999,123.838997 5.69,177.966997 -0.368,2.058 -1.563,5.312 -3.201,8.294 -5.048,9.557 -19.5100001,3.734 -22.4790001,-0.976 -9.845,-21.536 -0.091,-16.514 -11.25,-40.673 -1.46,-2.278 -2.596,-8.257 -1.685,-10.482 2.978,-8.943 8.103,-16.302 12.665,-22.15 l -5.646,-11.189 c -8.601,6.906 -12.672,17.1 -16.372,25.541 -3.213,6.747 -2.854,14.126 -3.005,19.03 -0.345,25.107 9.297,48.588 10.755,60.402 0.53,3.458 6.526,7.483 9.31,9.05 15.8720001,9.692 18.5700001,5.689 35.189,-1.085 6.232,-3.85 8.011,-14.98 8.804,-20.828 2.575,-60.717 -18.8109999,-138.254 -7.487,-189.583997 z"
       id="path6" />
    <path
       style="fill:#000000;fill-opacity:1;fill-rule:evenodd;stroke:none;stroke-width:0.934101px;stroke-linecap:butt;stroke-linejoin:miter;stroke-opacity:1"
       d="m 315.26341,164.00724 c -4.62562,-6.92175 -5.81439,-10.65239 -15.58344,-13.49562 -1.57811,-0.45032 -7.78184,-0.79292 -12.03591,1.2874 -17.66453,18.03243 -56.04208,-47.14018 -72.19471,-70.43964 -9.93902,-15.16447 -21.08755,-10.007809 -11.31751,9.883307 11.93511,25.664983 25.83471,70.901453 61.76655,79.792273 3.94082,0.0856 5.60095,2.71431 6.53971,6.47232 1.40913,5.75268 27.48496,0.70021 34.28061,-2.60482 6.79663,-3.30592 9.84217,-8.65772 8.5447,-10.8961 z"
       id="path7" />
    <path
       style="fill:#000000;fill-opacity:1;fill-rule:evenodd;stroke:none;stroke-width:0.934101px;stroke-linecap:butt;stroke-linejoin:miter;stroke-opacity:1"
       d="m 250.08767,145.49448 c -4.58511,1.19821 -16.35718,5.37564 -21.2921,4.61274 -9.01705,-3.51254 -12.44501,-8.42373 -22.04113,-10.38485 -5.2788,-0.84061 -21.59942,16.42361 -19.01931,21.38072 4.29657,6.33369 13.18515,9.69876 17.17934,9.59457 19.20409,-0.68697 32.80329,-11.6281 54.91162,-12.02368 z m 58.08068,25.79213 c -15.33343,41.27625 16.08247,59.01817 24.19534,96.33156 2.32616,10.69919 -2.29749,21.35423 -4.11474,29.56427 -4.4606,17.75605 -31.36254,3.73329 -25.1094,-9.82061 15.94413,-32.28035 -8.05852,-59.96032 -15.56367,-90.59919 -0.41009,-2.26663 2.67794,-3.65028 4.77483,-5.09838 6.79367,-4.68868 1.18877,-11.76408 3.3084,-17.53442 z"
       id="path8" />
    <path
       style="fill:#000000;fill-opacity:1;fill-rule:evenodd;stroke:none;stroke-width:0.934101px;stroke-linecap:butt;stroke-linejoin:miter;stroke-opacity:1"
       d="m 301.28179,219.88638 -6.83517,-28.04817 c -10.69101,8.69745 -52.84931,-11.89829 -80.49633,-22.254 l 3.80149,25.17139 c 28.77057,2.52889 55.42251,18.62844 83.53001,25.13078 z"
       id="path9" />
    <path
       style="fill:#000000;fill-opacity:1;fill-rule:evenodd;stroke:none;stroke-width:0.934101px;stroke-linecap:butt;stroke-linejoin:miter;stroke-opacity:1"
       d="m 271.7365,158.85765 c -34.47528,13.95124 13.83438,61.05875 11.04774,91.15282 h -19.19026 c 5.59897,-30.87904 -35.11857,-82.69378 -6.63359,-95.04063 z"
       id="path10" />
    <path
       style="fill:#000000;fill-opacity:1;fill-rule:evenodd;stroke:none;stroke-width:0.934101px;stroke-linecap:butt;stroke-linejoin:miter;stroke-opacity:1"
       d="m 292.03252,243.73594 c 0.46049,-2.46001 -7.16621,-9.48772 -9.92715,-9.47183 -24.19831,0.60926 -47.85708,0.0742 -72.05538,-1.8949 -11.33234,-0.71434 -2.3558,21.10611 3.01293,22.00853 25.33569,3.03307 73.54751,1.72801 74.7432,-0.2287 1.98919,-3.01982 3.31729,-5.9381 4.2264,-10.4131 z"
       id="path11" />
    <path
       style="fill:#000000;fill-opacity:1;fill-rule:evenodd;stroke:none;stroke-width:0.934101px;stroke-linecap:butt;stroke-linejoin:miter;stroke-opacity:1"
       d="m 215.39895,157.54552 c 30.72023,96.5267 8.12968,146.76089 2.22734,149.57145 -3.23922,1.89666 -9.9904,1.48695 -13.37093,-0.50684 -24.78133,-16.65231 38.90129,-105.63033 -10.58133,-145.75339 z"
       id="path12" />
  </g>
</svg>
