<svg xmlns="http://www.w3.org/2000/svg" 
   viewBox="0 0 400 300" >
  <g
     transform="rotate(90,193.63556,197.24291)">
    <path
       d="m -973.9,230.335 c 101.51,10.776 95.086,-15.763 180.061,-18.577 18.885,-2.746 17.635,-17.46 -0.449,-16.017 -90.368,2.243 -58.78,34.94 -177.693,16.091 -28.997,-5.176 -24.264,14.568 -1.919,18.503 z"
       style="fill:#b93c3c;fill-opacity:1;fill-rule:evenodd;stroke:none;stroke-width:1px;stroke-linecap:butt;stroke-linejoin:miter;stroke-opacity:1"
       transform="translate(1034.343,-3.476)"
       id="path1" />
    <path
       d="m -882.636,187.136 c 1.312,-3.924 -7.997,-10.181 -13.22,-3.472 -4.83,7.479 -6.263,12.155 -10.86,17.42 -1.958,2.393 -2.24,7.725 -0.216,9.267 7.568,6.199 6.724,4.784 11.5,14.738 l 20.53,-1.762 c -6.52,-8.589 -7.597,-7.834 -10.131,-16.424 -1.165,-9.327 -0.808,-10.176 2.397,-19.767 z m 25.793,-37.962 c -2.072,-2.165 -3.31,-2.932 -6.213,0 l -15.391,15.54 c -1.348,1.501 -1.372,3.706 -0.264,4.97 l 9.17,8.834 c 4.353,4.252 5.464,7.314 2.9,12.336 -3.42,9.616 -5.987,19.367 -6.097,24.708 l 21.18,-3.487 c -3.959,-9.818 -3.87,-12.358 2.866,-21.647 5.559,-6.327 10.933,-7.774 5.995,-16.417 z m 22.403,80.356 c -2.379,0 -5.115,0.351 -7.986,0.675 -25.98,4.24 -44.632,13.662 -87.783,12.14 -5.841,0.03 -10.797,3.109 -10.592,7.59 0.416,9.893 7.7,62.177 8.305,66.89 0.853,6.417 9.79,6.987 10.967,1.34 0.215,-1.033 0.221,-3.957 0.098,-7.995 0.547,-1.144 1.397,-2.02 2.308,-2.184 l 56.983,-5.092 c 0.58,0.007 1.014,0.545 1.32,1.33 -0.442,20.094 -0.684,39.742 -0.254,46.624 0.124,1.52 0.051,3.12 1.57,4.486 3.627,3.034 24.108,1.363 29.408,-1.947 1.469,-1.078 2,-1.583 2.198,-3.83 -2.961,-33.992 -0.668,-77.218 1.605,-110.873 0.597,-7.453 -2.911,-9.155 -8.146,-9.155 z m -26.98,16.763 c 5.652,-1.39 2.022,15.828 0.088,15.877 l -58.828,4.611 c -5.127,-1.024 -4.88,-13.066 -1.422,-13.228 26.639,-0.896 35.744,-3.181 60.162,-7.26 z m -0.129,29.152 c 1.706,-0.13 2.018,12.385 -0.38,12.586 l -57.32,4.797 c -4.102,-1.15 -4.353,-11.962 -0.78,-12.492 z"
       style="fill:#b93c3c;fill-opacity:1;fill-rule:evenodd;stroke:none;stroke-width:1px;stroke-linecap:butt;stroke-linejoin:miter;stroke-opacity:1"
       transform="translate(1034.343,-3.476)"
       id="path2" />
    <path
       d="m -881.542,246.32 -19.233,0.635 -5.291,90.56 c -0.751,10.291 4.492,20.61 11.24,20.762 l 18.743,-6.546 z"
       style="fill:#b93c3c;fill-opacity:1;fill-rule:evenodd;stroke:none;stroke-width:1px;stroke-linecap:butt;stroke-linejoin:miter;stroke-opacity:1"
       transform="translate(1034.343,-3.476)"
       id="path3" />
    <path
       d="m -942.636,354.94 0.846,8.028 c 54.246,18.284 41.637,-8.576 96.894,-15.151 l -0.634,-4.928 c -42.242,-2.988 -64.353,13.179 -97.106,12.051 z"
       style="fill:#b93c3c;fill-opacity:1;fill-rule:evenodd;stroke:none;stroke-width:1px;stroke-linecap:butt;stroke-linejoin:miter;stroke-opacity:1"
       transform="translate(1034.343,-3.476)"
       id="path4" />
    <path
       d="m -947.816,295.507 c -4.79,-14.35 -18.047,-11.53 -15.57,0.885 13.898,43.448 17.943,67.498 19.8,70.859 10.792,18.228 18.402,13.453 19.078,-2.434 0.112,-4.85 -14.234,-43.495 -23.308,-69.31 z"
       style="fill:#b93c3c;fill-opacity:1;fill-rule:evenodd;stroke:none;stroke-width:1px;stroke-linecap:butt;stroke-linejoin:miter;stroke-opacity:1"
       transform="translate(1034.343,-3.476)"
       id="path5" />
    <path
       d="m -990.503,324.512 c -8.36,-1.304 -7.6,9.084 -3.317,11.288 59.848,26.468 123.839,-8.865 177.967,-5.69 2.058,0.368 5.312,1.563 8.294,3.201 9.557,5.048 3.734,19.51 -0.976,22.479 -21.536,9.845 -16.514,0.091 -40.673,11.25 -2.278,1.46 -8.257,2.596 -10.482,1.685 -8.943,-2.978 -16.302,-8.103 -22.15,-12.665 l -11.189,5.646 c 6.906,8.601 17.1,12.672 25.541,16.372 6.747,3.213 14.126,2.854 19.03,3.005 25.107,0.345 48.588,-9.297 60.402,-10.755 3.458,-0.53 7.483,-6.526 9.05,-9.31 9.692,-15.872 5.689,-18.57 -1.085,-35.189 -3.85,-6.232 -14.98,-8.011 -20.828,-8.804 -60.717,-2.575 -138.254,18.811 -189.584,7.487 z"
       style="fill:#b93c3c;fill-opacity:1;fill-rule:evenodd;stroke:none;stroke-width:1px;stroke-linecap:butt;stroke-linejoin:miter;stroke-opacity:1"
       transform="translate(1034.343,-3.476)"
       id="path6" />
    <path
       d="m 138.731,661.522 c -6.661,-6.95 -9.144,-5.77 -14.01,-1.951 -3.9,3.998 -7.614,6.227 -9.403,14.145 -0.967,4.36 -0.136,13.043 1.951,20.487 1.287,3.662 6.02,7.381 11.005,8.78 1.71,0.542 -0.622,8.672 -2.439,13.008 l 18.21,-0.976 c -1.541,-4.9 -5.491,-12.838 -4.552,-14.308 5.1,-7.982 10.835,-18.724 10.86,-22.763 0.07,-3.681 -5.626,-10.163 -11.622,-16.422 z"
       style="fill:#000000;fill-opacity:1;fill-rule:evenodd;stroke:none;stroke-width:1px;stroke-linecap:butt;stroke-linejoin:miter;stroke-opacity:1"
       transform="translate(0,-652.362)"
       id="path7" />
    <path
       d="m 64.55,730.19 c -11.593,-1.2 -23.54,-15.849 3.028,-14.308 42.501,3.246 75.194,-0.247 131.69,-25.611 6.908,-1.686 58.324,12.344 60.432,17.56 2.654,7.909 -1.029,30.331 -12.666,29.494 C 230.562,732.12 193.606,712.869 180.66,716.342 131.204,728.5 114.022,733.459 64.55,730.19 Z"
       style="fill:#000000;fill-opacity:1;fill-rule:evenodd;stroke:none;stroke-width:1px;stroke-linecap:butt;stroke-linejoin:miter;stroke-opacity:1"
       transform="translate(0,-652.362)"
       id="path8" />
    <path
       d="m 133.871,733.005 c -4.023,-2.139 -24.469,13.505 -24.897,16.39 -0.845,5.325 4.787,12.92 2.3,14.19 -35.138,18.204 -47.383,19.283 -65.468,22.487 -21.425,4.198 -16.073,15.92 0,14.164 50.84,-5.295 39.72,-11.786 92.174,-21.982 4.079,-0.896 11.869,-18.057 11.869,-24.792 0,-5.73 -10.277,-17.435 -15.978,-20.457 z m 26.636,9.241 c -2.032,-0.118 -2.566,0.662 -2.08,1.814 10.907,25.897 58.795,61.458 61.326,56.12 7.436,-17.119 5.18,-19.57 2.029,-24.69 -11.856,-19.095 -43.212,-31.989 -61.275,-33.244 z"
       style="fill:#000000;fill-opacity:1;fill-rule:evenodd;stroke:none;stroke-width:1px;stroke-linecap:butt;stroke-linejoin:miter;stroke-opacity:1"
       transform="translate(0,-652.362)"
       id="path9" />
  </g>
</svg>
