<svg xmlns="http://www.w3.org/2000/svg" 
   viewBox="0 0 400 300" >
  <g
     transform="translate(50.748451,-41.998182)">
    <path
       d="m 114.39073,103.18963 c -10.776,101.51 15.763,95.086 18.577,180.061 2.746,18.885 17.46,17.635 16.017,-0.449 -2.243,-90.368 -34.94,-58.78 -16.091,-177.693 5.176,-28.996999 -14.568,-24.263999 -18.503,-1.919 z"
       style="fill:#b93c3c;fill-opacity:1;fill-rule:evenodd;stroke:none;stroke-width:1px;stroke-linecap:butt;stroke-linejoin:miter;stroke-opacity:1"
       id="path1" />
    <path
       d="m 157.58973,194.45363 c 3.924,1.312 10.181,-7.997 3.472,-13.22 -7.479,-4.83 -12.155,-6.263 -17.42,-10.86 -2.393,-1.958 -7.725,-2.24 -9.267,-0.216 -6.199,7.568 -4.784,6.724 -14.738,11.5 l 1.762,20.53 c 8.589,-6.52 7.834,-7.597 16.424,-10.131 9.327,-1.165 10.176,-0.808 19.767,2.397 z m 37.962,25.793 c 2.165,-2.072 2.932,-3.31 0,-6.213 l -15.54,-15.391 c -1.501,-1.348 -3.706,-1.372 -4.97,-0.264 l -8.834,9.17 c -4.252,4.353 -7.314,5.464 -12.336,2.9 -9.616,-3.42 -19.367,-5.987 -24.708,-6.097 l 3.487,21.18 c 9.818,-3.959 12.358,-3.87 21.647,2.866 6.327,5.559 7.774,10.933 16.417,5.995 z m -80.356,22.403 c 0,-2.379 -0.351,-5.115 -0.675,-7.986 -4.24,-25.98 -13.662,-44.632 -12.14,-87.783 -0.03,-5.841 -3.108996,-10.797 -7.589996,-10.592 -9.893,0.416 -62.177,7.7 -66.89,8.305 -6.417,0.853 -6.987,9.79 -1.34,10.967 1.033,0.215 3.957,0.221 7.995,0.098 1.144,0.547 2.02,1.397 2.184,2.308 l 5.092,56.983 c -0.007,0.58 -0.545,1.014 -1.33,1.32 -20.094,-0.442 -39.7419998,-0.684 -46.6239998,-0.254 -1.52,0.124 -3.12,0.051 -4.4860002,1.57 -3.034,3.627 -1.363,24.108 1.9470002,29.408 1.078,1.469 1.583,2 3.83,2.198 33.9919998,-2.961 77.2179998,-0.668 110.8729958,1.605 7.453,0.597 9.155,-2.911 9.155,-8.146 z m -16.762996,-26.98 c 1.39,5.652 -15.828,2.022 -15.877,0.088 l -4.611,-58.828 c 1.024,-5.127 13.066,-4.88 13.228,-1.422 0.896,26.639 3.181,35.744 7.26,60.162 z m -29.152,-0.129 c 0.13,1.706 -12.385,2.018 -12.586,-0.38 l -4.797,-57.32 c 1.15,-4.102 11.962,-4.353 12.492,-0.78 z"
       style="fill:#b93c3c;fill-opacity:1;fill-rule:evenodd;stroke:none;stroke-width:1px;stroke-linecap:butt;stroke-linejoin:miter;stroke-opacity:1"
       id="path2" />
    <path
       d="m 98.405734,195.54763 -0.635,-19.233 -90.5599998,-5.291 c -10.291,-0.751 -20.6100002,4.492 -20.7620002,11.24 l 6.5460002,18.743 z"
       style="fill:#b93c3c;fill-opacity:1;fill-rule:evenodd;stroke:none;stroke-width:1px;stroke-linecap:butt;stroke-linejoin:miter;stroke-opacity:1"
       id="path3" />
    <path
       d="m -10.214266,134.45363 -8.028,0.846 c -18.284,54.246 8.5760002,41.637 15.1510002,96.894 l 4.928,-0.634 c 2.988,-42.242 -13.1790002,-64.353 -12.0510002,-97.106 z"
       style="fill:#b93c3c;fill-opacity:1;fill-rule:evenodd;stroke:none;stroke-width:1px;stroke-linecap:butt;stroke-linejoin:miter;stroke-opacity:1"
       id="path4" />
    <path
       d="m 49.218734,129.27363 c 14.35,-4.79 11.53,-18.047 -0.885,-15.57 -43.4479998,13.898 -67.498,17.943 -70.859,19.8 -18.228,10.792 -13.453,18.402 2.434,19.078 4.85,0.112 43.495,-14.234 69.31,-23.308 z"
       style="fill:#b93c3c;fill-opacity:1;fill-rule:evenodd;stroke:none;stroke-width:1px;stroke-linecap:butt;stroke-linejoin:miter;stroke-opacity:1"
       id="path5" />
    <path
       d="m 20.213734,86.586631 c 1.304,-8.36 -9.084,-7.6 -11.2879998,-3.317 -26.4680002,59.847999 8.8649998,123.838999 5.6899998,177.966999 -0.368,2.058 -1.563,5.312 -3.201,8.294 -5.0479998,9.557 -19.5099998,3.734 -22.479,-0.976 -9.845,-21.536 -0.091,-16.514 -11.25,-40.673 -1.46,-2.278 -2.596,-8.257 -1.685,-10.482 2.978,-8.943 8.103,-16.302 12.665,-22.15 l -5.646,-11.189 c -8.601,6.906 -12.672,17.1 -16.372,25.541 -3.213,6.747 -2.854,14.126 -3.005,19.03 -0.345,25.107 9.297,48.588 10.755,60.402 0.53,3.458 6.526,7.483 9.31,9.05 15.8720002,9.692 18.5700002,5.689 35.189,-1.085 6.232,-3.85 8.011,-14.98 8.804,-20.828 2.575,-60.717 -18.8109998,-138.254 -7.487,-189.583999 z"
       style="fill:#b93c3c;fill-opacity:1;fill-rule:evenodd;stroke:none;stroke-width:1px;stroke-linecap:butt;stroke-linejoin:miter;stroke-opacity:1"
       id="path6" />
    <path
       d="m 316.17473,188.97263 c 9.273,0.545 17.959,-36.812 4.272,-33.246 -62.02,17.95 -79.39,-5.542 -100.842,-66.765999 -1.146,-4.171 -9.321,-5.269 -7.116,1.845 20.004,64.537999 24.603,103.842999 103.686,98.166999 z"
       style="fill:#000000;fill-opacity:1;fill-rule:evenodd;stroke:none;stroke-width:1px;stroke-linecap:butt;stroke-linejoin:miter;stroke-opacity:1"
       id="path7" />
    <path
       d="m 274.96173,164.00063 c 2.2,-5.844 5.451,-10.977 10.567,-14.363 0.9,-0.6 8.686,-2.23 9.148,1.975 1.78,16.174 6.608,7.18 7.333,10.673 4.487,21.63 17.632,52.321 22.718,71.642 2.844,10.802 11.073,17.882 10.055,21.272 0.89,12.271 -25.67,13.764 -27.626,5.868 -4.564,-31.095 -2.638,-48.763 -11.443,-79.859 z"
       style="fill:#000000;fill-opacity:1;fill-rule:evenodd;stroke:none;stroke-width:1px;stroke-linecap:butt;stroke-linejoin:miter;stroke-opacity:1"
       id="path8" />
    <path
       d="m 313.88873,207.86563 c 10.217,0.56 6.918,-8.388 -3.186,-11.027 -28.798,3.165 -73.622,-18.621 -102.02,5.9 -13.07,11.286 -13.303,72.51 -4.714,84.392 14.572,17.017 28.294,7.853 27.88,-2.366 -1.45,-19.384 50.074,-19.42 48.9,-27.58 -1.635,-8.694 -48.839,0.641 -54.135,-6.381 -8.357,-11.28 3.746,-30.812 11.111,-36.187 20.253,-14.781 56.25,-3.422 76.164,-6.75 z"
       style="fill:#000000;fill-opacity:1;fill-rule:evenodd;stroke:none;stroke-width:1px;stroke-linecap:butt;stroke-linejoin:miter;stroke-opacity:1"
       id="path9" />
  </g>
</svg>
